<svg data-v-423bf9ae="" xmlns="http://www.w3.org/2000/svg" viewBox="0 0 498 90" class="iconLeftSlogan"><!----><!----><!----><g data-v-423bf9ae="" id="cc9bbf81-be83-45d4-95d1-39335ffc18d4" fill="#22255B" transform="matrix(4.4510387268192755,0,0,4.4510387268192755,108.70920331647824,0)"><path d="M7.36 0.57L0.29 0.57L0.29 1.44L3.36 1.44L3.36 10.22L4.28 10.22L4.28 1.44L7.36 1.44ZM10.44 3.54C9.42 3.54 8.72 4.17 8.40 5.28L8.40 3.68L7.49 3.68L7.49 10.22L8.40 10.22L8.40 7.76C8.40 6.15 8.88 4.41 10.43 4.41C10.67 4.41 10.98 4.45 11.31 4.59L11.48 3.74C11.23 3.61 10.81 3.54 10.44 3.54ZM18.51 6.93C18.51 4.86 17.15 3.54 15.29 3.54C13.44 3.54 11.96 4.86 11.96 6.93C11.96 9.00 13.44 10.36 15.29 10.36C16.52 10.36 17.64 9.77 18.21 8.72L17.44 8.39C17.01 9.10 16.21 9.51 15.32 9.51C14 9.51 13.02 8.72 12.87 7.32L18.49 7.32C18.51 7.20 18.51 7.06 18.51 6.93ZM12.88 6.55C13.05 5.15 14 4.40 15.29 4.40C16.56 4.40 17.50 5.19 17.63 6.55ZM23.42 3.54C22.61 3.54 21.55 3.92 21.15 4.86L21.15 3.68L20.26 3.68L20.26 10.22L21.15 10.22L21.15 6.59C21.18 5.01 22.29 4.42 23.34 4.42C24.39 4.42 25.19 5.19 25.19 6.45L25.19 10.22L26.08 10.22L26.08 6.41C26.08 4.61 25.00 3.54 23.42 3.54ZM33.70 0L33.70 4.94C33.21 4.06 32.20 3.54 31.09 3.54C29.26 3.54 27.78 4.96 27.78 6.94C27.78 8.93 29.27 10.36 31.09 10.36C32.19 10.36 33.21 9.84 33.70 8.95L33.70 10.22L34.59 10.22L34.59 0ZM31.16 9.51C29.79 9.51 28.67 8.39 28.67 6.93C28.67 5.49 29.79 4.40 31.16 4.40C32.47 4.40 33.70 5.39 33.70 6.97C33.70 8.48 32.52 9.51 31.16 9.51ZM37.28 1.90C37.67 1.90 37.98 1.64 37.98 1.27C37.98 0.90 37.67 0.63 37.28 0.63C36.92 0.63 36.60 0.90 36.60 1.27C36.60 1.64 36.92 1.90 37.28 1.90ZM36.83 10.22L37.73 10.22L37.73 3.68L36.83 3.68ZM43.13 3.54C42.32 3.54 41.26 3.92 40.87 4.86L40.87 3.68L39.97 3.68L39.97 10.22L40.87 10.22L40.87 6.59C40.89 5.01 42 4.42 43.05 4.42C44.10 4.42 44.90 5.19 44.90 6.45L44.90 10.22L45.79 10.22L45.79 6.41C45.79 4.61 44.72 3.54 43.13 3.54ZM53.41 3.68L53.41 4.94C52.92 4.06 51.91 3.54 50.81 3.54C48.97 3.54 47.49 4.96 47.49 6.94C47.49 8.93 48.99 10.36 50.81 10.36C51.90 10.36 52.92 9.84 53.41 8.96L53.41 9.30C53.41 11.82 52.36 12.63 50.76 12.63C49.98 12.63 49.17 12.24 48.69 11.47L47.94 11.89C48.58 12.95 49.66 13.48 50.76 13.48C52.89 13.48 54.31 12.42 54.31 9.25L54.31 3.68ZM50.88 9.51C49.50 9.51 48.38 8.39 48.38 6.93C48.38 5.49 49.50 4.40 50.88 4.40C52.18 4.40 53.41 5.39 53.41 6.97C53.41 8.48 52.23 9.51 50.88 9.51ZM65.31 5.08C66.21 4.72 66.58 3.82 66.58 2.95C66.58 1.46 65.58 0.57 64.02 0.57L60.52 0.57L60.52 10.22L64.37 10.22C66.08 10.22 67.10 8.93 67.10 7.56C67.10 6.55 66.54 5.40 65.31 5.08ZM64.01 1.44C65.03 1.44 65.66 2.04 65.66 3.02C65.66 3.98 65.14 4.72 64.19 4.72L61.45 4.72L61.45 1.44ZM64.22 9.35L61.45 9.35L61.45 5.53L64.18 5.53C65.44 5.53 66.18 6.45 66.18 7.49C66.18 8.48 65.46 9.35 64.22 9.35ZM71.97 10.36C73.84 10.36 75.40 9.00 75.40 6.93C75.40 4.86 73.84 3.54 71.97 3.54C70.11 3.54 68.56 4.86 68.56 6.93C68.56 9.00 70.11 10.36 71.97 10.36ZM71.97 9.51C70.59 9.51 69.45 8.48 69.45 6.93C69.45 5.39 70.59 4.40 71.97 4.40C73.35 4.40 74.51 5.39 74.51 6.93C74.51 8.48 73.35 9.51 71.97 9.51ZM79.03 10.36C80.39 10.36 81.44 9.62 81.44 8.46C81.44 7.70 81.05 6.93 79.77 6.62L78.81 6.38C78.33 6.27 77.80 6.01 77.80 5.39C77.80 4.77 78.32 4.34 79.07 4.34C79.72 4.34 80.29 4.73 80.33 5.32L81.20 5.32C81.16 4.14 80.15 3.54 79.06 3.54C77.81 3.54 76.90 4.31 76.90 5.38C76.90 6.47 77.64 6.94 78.57 7.17L79.51 7.39C80.18 7.56 80.54 7.91 80.54 8.44C80.54 9.10 79.97 9.56 79.03 9.56C78.08 9.56 77.57 9.00 77.48 8.46L76.65 8.46C76.76 9.70 77.90 10.36 79.03 10.36ZM85.04 10.36C86.39 10.36 87.44 9.62 87.44 8.46C87.44 7.70 87.05 6.93 85.78 6.62L84.81 6.38C84.34 6.27 83.80 6.01 83.80 5.39C83.80 4.77 84.32 4.34 85.08 4.34C85.72 4.34 86.30 4.73 86.34 5.32L87.21 5.32C87.16 4.14 86.16 3.54 85.06 3.54C83.82 3.54 82.91 4.31 82.91 5.38C82.91 6.47 83.65 6.94 84.57 7.17L85.51 7.39C86.18 7.56 86.55 7.91 86.55 8.44C86.55 9.10 85.97 9.56 85.04 9.56C84.08 9.56 83.58 9.00 83.48 8.46L82.66 8.46C82.77 9.70 83.90 10.36 85.04 10.36Z"></path></g><defs data-v-423bf9ae=""><linearGradient data-v-423bf9ae="" gradientTransform="rotate(25)" id="753594cf-f74e-437d-9f1d-dc23cbe0c99e" x1="0%" y1="0%" x2="100%" y2="0%"><stop data-v-423bf9ae="" offset="0%" style="stop-color: rgb(81, 6, 255); stop-opacity: 1;"></stop><stop data-v-423bf9ae="" offset="100%" style="stop-color: rgb(97, 203, 242); stop-opacity: 1;"></stop></linearGradient></defs><g data-v-423bf9ae="" id="68d6e6f1-ec01-4b2e-a3f3-a8c47913418c" transform="matrix(2.8125,0,0,2.8125,0,0)" stroke="none" fill="url(#753594cf-f74e-437d-9f1d-dc23cbe0c99e)"><path d="M9.382 8.675h13.943v13.943L32 31.293V0H.707zM22.618 23.325H8.675V9.382L0 .707V32h31.293z"></path></g><!----><g data-v-423bf9ae="" id="9567e2ac-ecfa-4f13-9b6b-e56a7b4f39ca" fill="#22255B" transform="matrix(1.151532289556827,0,0,1.151532289556827,109.51635354110596,55.80842380282726)"><path d="M6.03 6.54L4.17 13.02L3.30 13.02L0.42 3.78L1.18 3.78L3.74 12.45L6.16 3.78L6.97 3.78L9.39 12.46L11.98 3.78L12.70 3.78L9.81 13.02L8.95 13.02L7.08 6.54L6.57 4.54L6.55 4.54L6.03 6.54ZM27.99 3.78L28.69 3.78L28.69 13.02L27.99 13.02L27.99 8.65L22.27 8.65L22.27 13.02L21.57 13.02L21.57 3.78L22.27 3.78L22.27 7.99L27.99 7.99L27.99 3.78ZM39.30 12.38L45.14 12.38L45.14 13.02L38.60 13.02L38.60 3.78L44.91 3.78L44.91 4.42L39.30 4.42L39.30 7.99L43.74 7.99L43.74 8.65L39.30 8.65L39.30 12.38ZM61.11 13.02L60.28 13.02L57.64 9.02L57.60 9.02L54.87 9.02L54.87 13.02L54.17 13.02L54.17 3.78L57.60 3.78Q58.98 3.78 59.80 4.48Q60.62 5.18 60.62 6.40L60.62 6.40Q60.62 7.41 60.03 8.07Q59.44 8.74 58.42 8.93L58.42 8.93L61.11 13.02ZM54.87 4.42L54.87 8.36L57.58 8.36Q58.70 8.36 59.30 7.85Q59.89 7.35 59.89 6.40L59.89 6.40Q59.89 5.45 59.30 4.93Q58.70 4.42 57.58 4.42L57.58 4.42L54.87 4.42ZM70.83 12.38L76.66 12.38L76.66 13.02L70.13 13.02L70.13 3.78L76.44 3.78L76.44 4.42L70.83 4.42L70.83 7.99L75.26 7.99L75.26 8.65L70.83 8.65L70.83 12.38ZM103.00 3.78L103.00 4.42L99.62 4.42L99.62 13.02L98.92 13.02L98.92 4.42L95.55 4.42L95.55 3.78L103.00 3.78ZM118.71 13.02L117.88 13.02L115.23 9.02L115.19 9.02L112.46 9.02L112.46 13.02L111.76 13.02L111.76 3.78L115.19 3.78Q116.58 3.78 117.40 4.48Q118.22 5.18 118.22 6.40L118.22 6.40Q118.22 7.41 117.63 8.07Q117.04 8.74 116.02 8.93L116.02 8.93L118.71 13.02ZM112.46 4.42L112.46 8.36L115.18 8.36Q116.30 8.36 116.89 7.85Q117.49 7.35 117.49 6.40L117.49 6.40Q117.49 5.45 116.89 4.93Q116.30 4.42 115.18 4.42L115.18 4.42L112.46 4.42ZM128.42 12.38L134.26 12.38L134.26 13.02L127.72 13.02L127.72 3.78L134.04 3.78L134.04 4.42L128.42 4.42L128.42 7.99L132.86 7.99L132.86 8.65L128.42 8.65L128.42 12.38ZM150.39 3.78L150.39 13.02L149.52 13.02L144.62 5.77L143.93 4.54L143.92 4.54L143.96 5.70L143.96 13.02L143.29 13.02L143.29 3.78L144.17 3.78L149.06 11.02L149.76 12.26L149.73 11.10L149.73 3.78L150.39 3.78ZM163.21 3.78Q165.42 3.78 166.62 4.95Q167.82 6.12 167.82 8.33L167.82 8.33Q167.82 10.60 166.62 11.81Q165.42 13.02 163.21 13.02L163.21 13.02L160.30 13.02L160.30 3.78L163.21 3.78ZM163.27 12.38Q165.12 12.38 166.10 11.33Q167.09 10.29 167.09 8.33L167.09 8.33Q167.09 6.45 166.10 5.44Q165.12 4.42 163.27 4.42L163.27 4.42L161.00 4.42L161.00 12.38L163.27 12.38ZM180.01 3.64Q182.62 3.64 183.50 5.68L183.50 5.68L182.90 6.17Q182.55 5.18 181.85 4.73Q181.16 4.28 180.03 4.28L180.03 4.28Q179.21 4.28 178.61 4.54Q178.01 4.79 177.70 5.22Q177.38 5.66 177.38 6.20L177.38 6.20Q177.38 6.73 177.65 7.08Q177.91 7.43 178.55 7.68Q179.19 7.92 180.31 8.12L180.31 8.12Q182.11 8.43 182.87 9.02Q183.62 9.60 183.62 10.64L183.62 10.64Q183.62 11.38 183.19 11.96Q182.76 12.53 181.97 12.84Q181.17 13.16 180.15 13.16L180.15 13.16Q178.70 13.16 177.70 12.58Q176.69 12.00 176.33 10.95L176.33 10.95L176.95 10.47Q177.23 11.47 178.07 11.99Q178.92 12.52 180.17 12.52L180.17 12.52Q181.37 12.52 182.13 12.03Q182.90 11.54 182.90 10.68L182.90 10.68Q182.90 9.94 182.27 9.51Q181.65 9.07 180.11 8.81L180.11 8.81Q178.81 8.58 178.05 8.26Q177.30 7.94 176.97 7.46Q176.64 6.99 176.64 6.27L176.64 6.27Q176.64 5.56 177.05 4.96Q177.46 4.35 178.23 4.00Q178.99 3.64 180.01 3.64L180.01 3.64ZM204.20 13.02L204.20 3.78L207.47 3.78Q208.98 3.78 209.73 4.41Q210.48 5.04 210.48 6.23L210.48 6.23Q210.48 7.04 210.04 7.60Q209.59 8.16 208.78 8.33L208.78 8.33L208.78 8.34Q209.68 8.48 210.20 9.07Q210.73 9.66 210.73 10.53L210.73 10.53Q210.73 11.72 209.88 12.37Q209.03 13.02 207.47 13.02L207.47 13.02L204.20 13.02ZM204.90 8.04L207.48 8.04Q209.73 8.04 209.73 6.23L209.73 6.23Q209.73 4.42 207.48 4.42L207.48 4.42L204.90 4.42L204.90 8.04ZM204.90 12.38L207.61 12.38Q208.78 12.38 209.38 11.90Q209.99 11.42 209.99 10.53L209.99 10.53Q209.99 9.62 209.38 9.15Q208.78 8.68 207.61 8.68L207.61 8.68L204.90 8.68L204.90 12.38ZM220.75 12.38L226.59 12.38L226.59 13.02L220.05 13.02L220.05 3.78L226.37 3.78L226.37 4.42L220.75 4.42L220.75 7.99L225.19 7.99L225.19 8.65L220.75 8.65L220.75 12.38ZM238.92 8.50L242.72 8.50L242.72 13.02L242.16 13.02L242.13 11.41Q241.75 12.25 240.95 12.71Q240.14 13.16 238.95 13.16L238.95 13.16Q237.69 13.16 236.75 12.58Q235.80 12.00 235.29 10.92Q234.78 9.84 234.78 8.40L234.78 8.40Q234.78 6.96 235.31 5.88Q235.83 4.80 236.78 4.22Q237.73 3.64 238.99 3.64L238.99 3.64Q240.41 3.64 241.30 4.20Q242.20 4.76 242.65 5.91L242.65 5.91L242.00 6.24Q241.68 5.28 240.92 4.78Q240.16 4.28 238.99 4.28L238.99 4.28Q237.96 4.28 237.17 4.78Q236.39 5.28 235.96 6.21Q235.52 7.14 235.52 8.40L235.52 8.40Q235.52 10.32 236.44 11.42Q237.36 12.52 238.98 12.52L238.98 12.52Q239.99 12.52 240.69 12.12Q241.39 11.72 241.72 11.07Q242.06 10.42 242.06 9.67L242.06 9.67L242.06 9.16L238.92 9.16L238.92 8.50ZM252.90 3.78L252.90 13.02L252.20 13.02L252.20 3.78L252.90 3.78ZM269.91 3.78L269.91 13.02L269.04 13.02L264.14 5.77L263.45 4.54L263.44 4.54L263.48 5.70L263.48 13.02L262.81 13.02L262.81 3.78L263.69 3.78L268.58 11.02L269.28 12.26L269.25 11.10L269.25 3.78L269.91 3.78Z"></path></g></svg>